<mxfile host="app.diagrams.net" agent="Mozilla/5.0 (Macintosh; Intel Mac OS X 10_15_7) AppleWebKit/537.36 (KHTML, like Gecko) Chrome/132.0.0.0 Safari/537.36" version="26.0.11">
  <diagram name="Page-1" id="gO7IQaFPP6W4pHcW2EdA">
    <mxGraphModel dx="1426" dy="1050" grid="1" gridSize="10" guides="1" tooltips="1" connect="1" arrows="1" fold="1" page="0" pageScale="1" pageWidth="850" pageHeight="1100" math="0" shadow="0">
      <root>
        <mxCell id="0" />
        <mxCell id="1" parent="0" />
        <mxCell id="HzU0wEz25tIWp3Q8X18U-1" value="MQTT Broker" style="html=1;dropTarget=0;whiteSpace=wrap;" vertex="1" parent="1">
          <mxGeometry x="200" y="200" width="180" height="90" as="geometry" />
        </mxCell>
        <mxCell id="HzU0wEz25tIWp3Q8X18U-2" value="" style="shape=module;jettyWidth=8;jettyHeight=4;" vertex="1" parent="HzU0wEz25tIWp3Q8X18U-1">
          <mxGeometry x="1" width="20" height="20" relative="1" as="geometry">
            <mxPoint x="-27" y="7" as="offset" />
          </mxGeometry>
        </mxCell>
        <mxCell id="HzU0wEz25tIWp3Q8X18U-3" value="Telemetry Pipeline" style="html=1;dropTarget=0;whiteSpace=wrap;" vertex="1" parent="1">
          <mxGeometry x="460" y="200" width="180" height="90" as="geometry" />
        </mxCell>
        <mxCell id="HzU0wEz25tIWp3Q8X18U-4" value="" style="shape=module;jettyWidth=8;jettyHeight=4;" vertex="1" parent="HzU0wEz25tIWp3Q8X18U-3">
          <mxGeometry x="1" width="20" height="20" relative="1" as="geometry">
            <mxPoint x="-27" y="7" as="offset" />
          </mxGeometry>
        </mxCell>
        <mxCell id="HzU0wEz25tIWp3Q8X18U-5" value="Telemetry Agents" style="html=1;dropTarget=0;whiteSpace=wrap;" vertex="1" parent="1">
          <mxGeometry x="-60" y="200" width="180" height="90" as="geometry" />
        </mxCell>
        <mxCell id="HzU0wEz25tIWp3Q8X18U-6" value="" style="shape=module;jettyWidth=8;jettyHeight=4;" vertex="1" parent="HzU0wEz25tIWp3Q8X18U-5">
          <mxGeometry x="1" width="20" height="20" relative="1" as="geometry">
            <mxPoint x="-27" y="7" as="offset" />
          </mxGeometry>
        </mxCell>
        <mxCell id="HzU0wEz25tIWp3Q8X18U-8" value="publish" style="endArrow=open;endSize=12;dashed=1;html=1;rounded=0;exitX=1;exitY=0.5;exitDx=0;exitDy=0;entryX=0;entryY=0.5;entryDx=0;entryDy=0;" edge="1" parent="1" source="HzU0wEz25tIWp3Q8X18U-5" target="HzU0wEz25tIWp3Q8X18U-1">
          <mxGeometry width="160" relative="1" as="geometry">
            <mxPoint x="340" y="350" as="sourcePoint" />
            <mxPoint x="500" y="350" as="targetPoint" />
            <mxPoint as="offset" />
          </mxGeometry>
        </mxCell>
        <mxCell id="HzU0wEz25tIWp3Q8X18U-9" value="subscribe" style="endArrow=open;endSize=12;dashed=1;html=1;rounded=0;exitX=1;exitY=0.5;exitDx=0;exitDy=0;entryX=0;entryY=0.5;entryDx=0;entryDy=0;" edge="1" parent="1" source="HzU0wEz25tIWp3Q8X18U-1" target="HzU0wEz25tIWp3Q8X18U-3">
          <mxGeometry width="160" relative="1" as="geometry">
            <mxPoint x="500" y="400" as="sourcePoint" />
            <mxPoint x="500" y="320" as="targetPoint" />
            <mxPoint as="offset" />
          </mxGeometry>
        </mxCell>
        <mxCell id="HzU0wEz25tIWp3Q8X18U-10" value="Database" style="html=1;dropTarget=0;whiteSpace=wrap;" vertex="1" parent="1">
          <mxGeometry x="720" y="200" width="180" height="90" as="geometry" />
        </mxCell>
        <mxCell id="HzU0wEz25tIWp3Q8X18U-11" value="" style="shape=module;jettyWidth=8;jettyHeight=4;" vertex="1" parent="HzU0wEz25tIWp3Q8X18U-10">
          <mxGeometry x="1" width="20" height="20" relative="1" as="geometry">
            <mxPoint x="-27" y="7" as="offset" />
          </mxGeometry>
        </mxCell>
        <mxCell id="HzU0wEz25tIWp3Q8X18U-12" value="persist" style="endArrow=open;endSize=12;dashed=1;html=1;rounded=0;exitX=1;exitY=0.5;exitDx=0;exitDy=0;entryX=0;entryY=0.5;entryDx=0;entryDy=0;" edge="1" parent="1" source="HzU0wEz25tIWp3Q8X18U-3" target="HzU0wEz25tIWp3Q8X18U-10">
          <mxGeometry width="160" relative="1" as="geometry">
            <mxPoint x="770" y="310" as="sourcePoint" />
            <mxPoint x="850" y="310" as="targetPoint" />
            <mxPoint as="offset" />
          </mxGeometry>
        </mxCell>
        <mxCell id="HzU0wEz25tIWp3Q8X18U-14" value="Visualization" style="html=1;dropTarget=0;whiteSpace=wrap;" vertex="1" parent="1">
          <mxGeometry x="720" y="40" width="180" height="90" as="geometry" />
        </mxCell>
        <mxCell id="HzU0wEz25tIWp3Q8X18U-15" value="" style="shape=module;jettyWidth=8;jettyHeight=4;" vertex="1" parent="HzU0wEz25tIWp3Q8X18U-14">
          <mxGeometry x="1" width="20" height="20" relative="1" as="geometry">
            <mxPoint x="-27" y="7" as="offset" />
          </mxGeometry>
        </mxCell>
        <mxCell id="HzU0wEz25tIWp3Q8X18U-16" value="view" style="endArrow=open;endSize=12;dashed=1;html=1;rounded=0;exitX=0.5;exitY=1;exitDx=0;exitDy=0;entryX=0.5;entryY=0;entryDx=0;entryDy=0;" edge="1" parent="1" source="HzU0wEz25tIWp3Q8X18U-14" target="HzU0wEz25tIWp3Q8X18U-10">
          <mxGeometry width="160" relative="1" as="geometry">
            <mxPoint x="660" y="400" as="sourcePoint" />
            <mxPoint x="740" y="400" as="targetPoint" />
            <mxPoint as="offset" />
          </mxGeometry>
        </mxCell>
        <mxCell id="HzU0wEz25tIWp3Q8X18U-19" value="Viewer" style="shape=umlActor;verticalLabelPosition=top;verticalAlign=bottom;html=1;labelPosition=center;align=center;" vertex="1" parent="1">
          <mxGeometry x="795" y="-90" width="30" height="60" as="geometry" />
        </mxCell>
        <mxCell id="HzU0wEz25tIWp3Q8X18U-20" value="" style="endArrow=open;endSize=12;dashed=1;html=1;rounded=0;entryX=0.5;entryY=0;entryDx=0;entryDy=0;" edge="1" parent="1" source="HzU0wEz25tIWp3Q8X18U-19" target="HzU0wEz25tIWp3Q8X18U-14">
          <mxGeometry width="160" relative="1" as="geometry">
            <mxPoint x="820" y="140" as="sourcePoint" />
            <mxPoint x="820" y="210" as="targetPoint" />
            <mxPoint as="offset" />
          </mxGeometry>
        </mxCell>
      </root>
    </mxGraphModel>
  </diagram>
</mxfile>
